<svg xmlns="http://www.w3.org/2000/svg" width="1918.707" height="666.829" viewBox="0 0 1918.707 666.829"><g transform="translate(7.767 -462.623)" opacity="0.37"><path d="M18.935,601.462,46.78,514.584s35.642-1.114,38.984,4.455,15.593,22.276,22.276,17.821,22.276-14.48,33.415-27.845,15.593-13.366,23.39-13.366,25.618-14.48,37.87,6.683,28.959,33.415,35.642,56.8,10.024,38.984,18.935,61.26,4.455,0,23.39,46.78,27.845,40.1,47.894,35.642,17.821-23.39,36.756,0,50.122,46.78,60.146,62.374,17.821,24.5,28.959,45.667,17.821,28.959,31.187,45.667,34.528,30.073,43.439,27.845,16.707,5.569,30.073-10.024,24.5-34.528,52.349-52.349,37.87-36.756,69.057-25.618,57.919,32.3,82.423,60.146,57.918,35.642,66.829,47.894,52.349,5.569,57.919,0c5.112-5.112,37.57-58.955,55.691-82.422,1.431-1.854,59.324.731,60.146,0,1.393-1.239,34.462-55.126,36.756-56.8,12.52-9.166,42.235,20.733,62.374,45.667,23.39,28.959,28.959,51.236,51.236,63.488,17.955,9.875,14.215,21.76,28.959,15.593,3.194-1.334-8.643,5.186,0,0,44.553-26.732,84.65-25.618,103.585-33.415s41.211-22.276,66.829-23.39,5.569-37.87,57.918,0,47.894,42.325,83.536,51.236,36.756,22.276,70.171,5.569,52.349-31.187,65.715-56.8,46.781-72.4,63.488-85.764,24.5-25.618,54.577-31.187,55.691-3.341,67.943-7.8,35.642-61.26,59.032-74.626,25.618-10.024,32.3-13.366,0-10.261,0,509.055H-7.767V633.762Z" fill="#0f4000"/><rect width="92" height="59" transform="translate(265 667)" fill="#0f4000"/><g transform="translate(-198.479 96.005) rotate(-22)"><path d="M0,0H82.042V7.276H0Z" transform="matrix(0.999, 0.035, -0.035, 0.999, 58.072, 449.137)" fill="#0f4000"/><path d="M0,0H91V69H0V0Z" transform="matrix(-0.035, 0.999, -0.999, -0.035, 135.008, 456.612)" fill="#0f4000"/></g><rect width="62" height="31" transform="translate(431 835)" fill="#0f4000"/><rect width="62" height="31" transform="translate(479 874)" fill="#0f4000"/><rect width="62" height="31" transform="matrix(0.799, -0.602, 0.602, 0.799, 527.914, 872.313)" fill="#0f4000"/><rect width="128.838" height="52" rx="10" transform="matrix(0.978, -0.208, 0.208, 0.978, 795.577, 867.426)" fill="#0f4000"/><rect width="37" height="93" transform="matrix(0.899, -0.438, 0.438, 0.899, 960, 799.22)" fill="#0f4000"/><path d="M11,0,47.805-.666,49.684,92.59,0,93V11A11,11,0,0,1,11,0Z" transform="translate(810.001 837.405) rotate(-14)" fill="#0f4000"/><path d="M0,0H32.536a11,11,0,0,1,11,11V93a0,0,0,0,1,0,0H0a0,0,0,0,1,0,0V0A0,0,0,0,1,0,0Z" transform="translate(852.629 826.147) rotate(-14)" fill="#0f4000"/><rect width="68" height="124" transform="translate(1125.818 832.441) rotate(13)" fill="#0f4000"/><rect width="55.499" height="94.152" transform="matrix(0.985, -0.174, 0.174, 0.985, 1193.933, 869.172)" fill="#0f4000"/><rect width="55.499" height="94.152" rx="13" transform="translate(1295.899 830.417) rotate(14)" fill="#0f4000"/><rect width="62" height="101" transform="translate(1339.403 790) rotate(30)" fill="#0f4000"/><rect width="62" height="101" transform="translate(1548.258 800.78) rotate(39)" fill="#0f4000"/><rect width="62" height="101" transform="translate(1579 850)" fill="#0f4000"/><rect width="62" height="101" rx="11" transform="translate(1704 682)" fill="#0f4000"/><rect width="62" height="101" rx="15" transform="matrix(0.978, 0.208, -0.208, 0.978, 1774.355, 632.658)" fill="#0f4000"/><rect width="62" height="101" transform="translate(1804 676)" fill="#0f4000"/></g></svg>